<?xml version="1.0" standalone="no"?><!DOCTYPE svg PUBLIC "-//W3C//DTD SVG 1.1//EN" "http://www.w3.org/Graphics/SVG/1.1/DTD/svg11.dtd"><svg t="1601287693602" class="icon" viewBox="0 0 1024 1024" version="1.1" xmlns="http://www.w3.org/2000/svg" p-id="16448" width="64" height="64" xmlns:xlink="http://www.w3.org/1999/xlink"><defs><style type="text/css"></style></defs><path d="M522.48161534 511.00836199a37.54216601 37.54216601 0 0 1-38.24568301-36.71073799V36.90260601C484.23593233 16.564601 501.37613833 0 522.48161534 0c21.16943299 0 38.37359398 16.628557 38.37359399 36.90260599v437.20315001a37.60612199 37.60612199 0 0 1-38.30963801 36.90260599zM510.96953633 1023.295845a497.385736 497.385736 0 0 1-346.001907-138.27285101A470.460265 470.460265 0 0 1 60.07980533 734.98224001a457.413243 457.413243 0 0 1 17.587897-402.794826A483.187507 483.187507 0 0 1 226.55724833 167.564695a39.20502201 39.20502201 0 0 1 53.46720701 8.570102 35.943267 35.943267 0 0 1-8.95383801 51.35666 408.42295401 408.42295401 0 0 0-125.60956501 139.040323 380.85792199 380.85792199 0 0 0-47.26347698 184.57698799c0 106.422768 42.978425 206.449937 121.00473399 281.66218101a417.760529 417.760529 0 0 0 291.895139 116.655727 418.01635199 418.01635199 0 0 0 291.89514-116.59177101 388.596597 388.596597 0 0 0 120.876822-281.726137 380.53814199 380.53814199 0 0 0-47.135565-184.57698799 408.03921801 408.03921801 0 0 0-125.80143301-138.912411 35.943267 35.943267 0 0 1-9.40153099-50.653144l0.63956-0.767472a39.14106601 39.14106601 0 0 1 53.403252-8.57010201 482.547947 482.547947 0 0 1 148.82559001 164.558763 456.965551 456.965551 0 0 1 17.65185299 402.794826 469.820705 469.820705 0 0 1-104.887824 150.10471 489.90288599 489.90288599 0 0 1-155.54096899 101.17837599A503.461556 503.461556 0 0 1 510.96953633 1023.295845z" p-id="16449"></path></svg>