<?xml version="1.0" standalone="no"?><!DOCTYPE svg PUBLIC "-//W3C//DTD SVG 1.1//EN" "http://www.w3.org/Graphics/SVG/1.1/DTD/svg11.dtd"><svg t="1602833948363" class="icon" viewBox="0 0 1024 1024" version="1.1" xmlns="http://www.w3.org/2000/svg" p-id="4709" xmlns:xlink="http://www.w3.org/1999/xlink" width="64" height="64"><defs><style type="text/css"></style></defs><path d="M512 27.767467C244.35712 27.767467 27.364693 244.5824 27.364693 512c0 267.421013 216.992427 484.232533 484.635307 484.232533 267.636053 0 484.631893-216.818347 484.631893-484.232533C996.631893 244.5824 779.636053 27.767467 512 27.767467z m0 899.28704c-229.413547 0-415.39584-185.821867-415.39584-415.054507C96.60416 282.781013 282.586453 96.955733 512 96.955733c229.40672 0 415.3856 185.821867 415.3856 415.044267 0 229.225813-185.97888 415.054507-415.3856 415.054507z" p-id="4710"></path><path d="M717.694293 477.313707l-411.26912 0.064853c-20.230827-0.064853-36.64896 15.49312-36.64896 34.62144 0 19.12832 16.41472 34.628267 36.64896 34.628267h411.211094c20.23424 0 36.594347-15.49312 36.594346-34.628267 0.047787-19.12832-16.305493-34.628267-36.53632-34.686293z" p-id="4711"></path></svg>