<?xml version="1.0" standalone="no"?><!DOCTYPE svg PUBLIC "-//W3C//DTD SVG 1.1//EN" "http://www.w3.org/Graphics/SVG/1.1/DTD/svg11.dtd"><svg t="1601277103401" class="icon" viewBox="0 0 1165 1024" version="1.1" xmlns="http://www.w3.org/2000/svg" p-id="7301" xmlns:xlink="http://www.w3.org/1999/xlink" width="36.40625" height="32"><defs><style type="text/css"></style></defs><path d="M735.677454 603.806897c77.682759-61.793103 127.117241-158.896552 127.117241-264.827587C862.794695 151.834483 710.960212 0 523.815385 0S184.836074 153.6 184.836074 340.744828c0 107.696552 49.434483 201.268966 127.117242 264.827586-162.427586 52.965517-264.827586 173.02069-298.372414 356.634483L1.222281 1024h1045.186207l-8.827586-61.793103C1002.270557 776.827586 899.870557 656.772414 735.677454 603.806897z m-444.910345-264.827587C290.767109 210.096552 394.932626 105.931034 523.815385 105.931034s233.048276 105.931034 233.048275 234.813794S652.698143 573.793103 523.815385 573.793103s-233.048276-105.931034-233.048276-234.813793zM131.870557 918.068966C183.070557 755.641379 310.187798 679.724138 523.815385 679.724138S864.560212 755.641379 915.760212 918.068966H131.870557z" p-id="7302"></path></svg>